<mxfile host="app.diagrams.net" modified="2024-01-23T09:12:13.898Z" agent="Mozilla/5.0 (Windows NT 10.0; Win64; x64) AppleWebKit/537.36 (KHTML, like Gecko) Chrome/120.0.0.0 Safari/537.36" etag="9vR5BF09unEYmIIWm0xz" version="22.1.21" type="github">
  <diagram name="페이지-1" id="PkM5ncjAm6-DUnmlodkK">
    <mxGraphModel dx="1290" dy="557" grid="1" gridSize="10" guides="1" tooltips="1" connect="1" arrows="1" fold="1" page="1" pageScale="1" pageWidth="827" pageHeight="1169" math="0" shadow="0">
      <root>
        <mxCell id="0" />
        <mxCell id="1" parent="0" />
        <mxCell id="tsbBIc5kF0ERgevxjKrs-8" value="Actor" style="shape=umlActor;verticalLabelPosition=bottom;verticalAlign=top;html=1;outlineConnect=0;" parent="1" vertex="1">
          <mxGeometry x="50" y="525" width="30" height="60" as="geometry" />
        </mxCell>
        <mxCell id="tsbBIc5kF0ERgevxjKrs-21" value="일정 관리 시스템" style="rounded=0;whiteSpace=wrap;html=1;" parent="1" vertex="1">
          <mxGeometry x="690" y="515" width="120" height="60" as="geometry" />
        </mxCell>
        <mxCell id="tsbBIc5kF0ERgevxjKrs-111" style="edgeStyle=orthogonalEdgeStyle;rounded=0;orthogonalLoop=1;jettySize=auto;html=1;exitX=0.5;exitY=1;exitDx=0;exitDy=0;entryX=0.5;entryY=0;entryDx=0;entryDy=0;" parent="1" source="tsbBIc5kF0ERgevxjKrs-22" target="tsbBIc5kF0ERgevxjKrs-30" edge="1">
          <mxGeometry relative="1" as="geometry" />
        </mxCell>
        <mxCell id="tsbBIc5kF0ERgevxjKrs-22" value="CreateSchedule" style="ellipse;whiteSpace=wrap;html=1;fontSize=10;" parent="1" vertex="1">
          <mxGeometry x="330" y="80" width="160" height="80" as="geometry" />
        </mxCell>
        <mxCell id="tsbBIc5kF0ERgevxjKrs-23" value="ViewScheduleList" style="ellipse;whiteSpace=wrap;html=1;fontSize=10;" parent="1" vertex="1">
          <mxGeometry x="330" y="505" width="160" height="80" as="geometry" />
        </mxCell>
        <mxCell id="tsbBIc5kF0ERgevxjKrs-30" value="ViewSelectedSchedule" style="ellipse;whiteSpace=wrap;html=1;fontSize=10;" parent="1" vertex="1">
          <mxGeometry x="330" y="300" width="160" height="80" as="geometry" />
        </mxCell>
        <mxCell id="tsbBIc5kF0ERgevxjKrs-31" value="DeleteSelectedSchedule" style="ellipse;whiteSpace=wrap;html=1;fontSize=10;" parent="1" vertex="1">
          <mxGeometry x="330" y="930" width="160" height="80" as="geometry" />
        </mxCell>
        <mxCell id="tsbBIc5kF0ERgevxjKrs-32" value="EditSelectedSchedule" style="ellipse;whiteSpace=wrap;html=1;fontSize=10;" parent="1" vertex="1">
          <mxGeometry x="330" y="700" width="160" height="80" as="geometry" />
        </mxCell>
        <mxCell id="tsbBIc5kF0ERgevxjKrs-88" value="" style="endArrow=none;html=1;rounded=0;entryX=0;entryY=0.5;entryDx=0;entryDy=0;exitX=0.5;exitY=0;exitDx=0;exitDy=0;exitPerimeter=0;" parent="1" source="tsbBIc5kF0ERgevxjKrs-8" target="tsbBIc5kF0ERgevxjKrs-22" edge="1">
          <mxGeometry width="50" height="50" relative="1" as="geometry">
            <mxPoint x="80" y="510" as="sourcePoint" />
            <mxPoint x="320" y="130" as="targetPoint" />
          </mxGeometry>
        </mxCell>
        <mxCell id="tsbBIc5kF0ERgevxjKrs-90" value="" style="endArrow=none;html=1;rounded=0;exitX=1;exitY=0.5;exitDx=0;exitDy=0;entryX=0.5;entryY=0;entryDx=0;entryDy=0;" parent="1" source="tsbBIc5kF0ERgevxjKrs-22" target="tsbBIc5kF0ERgevxjKrs-21" edge="1">
          <mxGeometry width="50" height="50" relative="1" as="geometry">
            <mxPoint x="500" y="120" as="sourcePoint" />
            <mxPoint x="680" y="410" as="targetPoint" />
          </mxGeometry>
        </mxCell>
        <mxCell id="tsbBIc5kF0ERgevxjKrs-91" value="" style="endArrow=none;html=1;rounded=0;exitX=0.75;exitY=0.1;exitDx=0;exitDy=0;exitPerimeter=0;entryX=0;entryY=0.5;entryDx=0;entryDy=0;" parent="1" source="tsbBIc5kF0ERgevxjKrs-8" target="tsbBIc5kF0ERgevxjKrs-30" edge="1">
          <mxGeometry width="50" height="50" relative="1" as="geometry">
            <mxPoint x="200" y="450" as="sourcePoint" />
            <mxPoint x="250" y="400" as="targetPoint" />
          </mxGeometry>
        </mxCell>
        <mxCell id="tsbBIc5kF0ERgevxjKrs-92" value="" style="endArrow=none;html=1;rounded=0;entryX=0.25;entryY=0;entryDx=0;entryDy=0;exitX=1;exitY=0.5;exitDx=0;exitDy=0;" parent="1" source="tsbBIc5kF0ERgevxjKrs-30" target="tsbBIc5kF0ERgevxjKrs-21" edge="1">
          <mxGeometry width="50" height="50" relative="1" as="geometry">
            <mxPoint x="500" y="360" as="sourcePoint" />
            <mxPoint x="701" y="517" as="targetPoint" />
          </mxGeometry>
        </mxCell>
        <mxCell id="tsbBIc5kF0ERgevxjKrs-93" value="" style="endArrow=none;html=1;rounded=0;exitX=1;exitY=0.3333333333333333;exitDx=0;exitDy=0;exitPerimeter=0;entryX=0;entryY=0.5;entryDx=0;entryDy=0;" parent="1" source="tsbBIc5kF0ERgevxjKrs-8" target="tsbBIc5kF0ERgevxjKrs-23" edge="1">
          <mxGeometry width="50" height="50" relative="1" as="geometry">
            <mxPoint x="190" y="585" as="sourcePoint" />
            <mxPoint x="240" y="535" as="targetPoint" />
          </mxGeometry>
        </mxCell>
        <mxCell id="tsbBIc5kF0ERgevxjKrs-94" value="" style="endArrow=none;html=1;rounded=0;exitX=1;exitY=0.5;exitDx=0;exitDy=0;entryX=0;entryY=0.5;entryDx=0;entryDy=0;" parent="1" source="tsbBIc5kF0ERgevxjKrs-23" target="tsbBIc5kF0ERgevxjKrs-21" edge="1">
          <mxGeometry width="50" height="50" relative="1" as="geometry">
            <mxPoint x="500" y="555" as="sourcePoint" />
            <mxPoint x="550" y="505" as="targetPoint" />
          </mxGeometry>
        </mxCell>
        <mxCell id="tsbBIc5kF0ERgevxjKrs-95" value="" style="endArrow=none;html=1;rounded=0;entryX=0;entryY=0.5;entryDx=0;entryDy=0;exitX=0.5;exitY=0.5;exitDx=0;exitDy=0;exitPerimeter=0;" parent="1" source="tsbBIc5kF0ERgevxjKrs-8" target="tsbBIc5kF0ERgevxjKrs-32" edge="1">
          <mxGeometry width="50" height="50" relative="1" as="geometry">
            <mxPoint x="130" y="690" as="sourcePoint" />
            <mxPoint x="180" y="640" as="targetPoint" />
          </mxGeometry>
        </mxCell>
        <mxCell id="tsbBIc5kF0ERgevxjKrs-96" value="" style="endArrow=none;html=1;rounded=0;exitX=1;exitY=0.5;exitDx=0;exitDy=0;entryX=0.5;entryY=1;entryDx=0;entryDy=0;" parent="1" source="tsbBIc5kF0ERgevxjKrs-31" target="tsbBIc5kF0ERgevxjKrs-21" edge="1">
          <mxGeometry width="50" height="50" relative="1" as="geometry">
            <mxPoint x="560" y="930" as="sourcePoint" />
            <mxPoint x="610" y="880" as="targetPoint" />
          </mxGeometry>
        </mxCell>
        <mxCell id="tsbBIc5kF0ERgevxjKrs-97" value="" style="endArrow=none;html=1;rounded=0;entryX=0;entryY=0.5;entryDx=0;entryDy=0;exitX=1;exitY=1;exitDx=0;exitDy=0;exitPerimeter=0;" parent="1" source="tsbBIc5kF0ERgevxjKrs-8" target="tsbBIc5kF0ERgevxjKrs-31" edge="1">
          <mxGeometry width="50" height="50" relative="1" as="geometry">
            <mxPoint x="80" y="670" as="sourcePoint" />
            <mxPoint x="300" y="980" as="targetPoint" />
          </mxGeometry>
        </mxCell>
        <mxCell id="tsbBIc5kF0ERgevxjKrs-100" value="" style="endArrow=none;html=1;rounded=0;entryX=0.25;entryY=1;entryDx=0;entryDy=0;exitX=1;exitY=0.5;exitDx=0;exitDy=0;" parent="1" source="tsbBIc5kF0ERgevxjKrs-32" target="tsbBIc5kF0ERgevxjKrs-21" edge="1">
          <mxGeometry width="50" height="50" relative="1" as="geometry">
            <mxPoint x="600" y="710" as="sourcePoint" />
            <mxPoint x="650" y="660" as="targetPoint" />
          </mxGeometry>
        </mxCell>
        <mxCell id="tsbBIc5kF0ERgevxjKrs-113" value="" style="endArrow=classic;html=1;rounded=0;exitX=0;exitY=0.5;exitDx=0;exitDy=0;entryX=0;entryY=0.5;entryDx=0;entryDy=0;" parent="1" source="tsbBIc5kF0ERgevxjKrs-22" target="tsbBIc5kF0ERgevxjKrs-23" edge="1">
          <mxGeometry width="50" height="50" relative="1" as="geometry">
            <mxPoint x="130" y="210" as="sourcePoint" />
            <mxPoint x="180" y="160" as="targetPoint" />
            <Array as="points">
              <mxPoint x="90" y="210" />
            </Array>
          </mxGeometry>
        </mxCell>
        <mxCell id="tsbBIc5kF0ERgevxjKrs-114" value="" style="endArrow=classic;html=1;rounded=0;exitX=0;exitY=0.5;exitDx=0;exitDy=0;" parent="1" source="tsbBIc5kF0ERgevxjKrs-30" edge="1">
          <mxGeometry width="50" height="50" relative="1" as="geometry">
            <mxPoint x="200" y="515" as="sourcePoint" />
            <mxPoint x="330" y="740" as="targetPoint" />
            <Array as="points">
              <mxPoint x="40" y="430" />
            </Array>
          </mxGeometry>
        </mxCell>
        <mxCell id="tsbBIc5kF0ERgevxjKrs-115" value="" style="endArrow=classic;html=1;rounded=0;exitX=0;exitY=0.5;exitDx=0;exitDy=0;entryX=0;entryY=0.5;entryDx=0;entryDy=0;" parent="1" source="tsbBIc5kF0ERgevxjKrs-30" target="tsbBIc5kF0ERgevxjKrs-31" edge="1">
          <mxGeometry width="50" height="50" relative="1" as="geometry">
            <mxPoint x="430" y="480" as="sourcePoint" />
            <mxPoint x="330" y="830" as="targetPoint" />
            <Array as="points">
              <mxPoint x="60" y="730" />
            </Array>
          </mxGeometry>
        </mxCell>
      </root>
    </mxGraphModel>
  </diagram>
</mxfile>
